<svg xmlns="http://www.w3.org/2000/svg" viewBox="0 0 36 36" fill="none">
  <defs>
    <linearGradient id="favCloud" x1="4" y1="4" x2="32" y2="32" gradientUnits="userSpaceOnUse">
      <stop offset="0%" stop-color="#818cf8"/>
      <stop offset="50%" stop-color="#a855f7"/>
      <stop offset="100%" stop-color="#38bdf8"/>
    </linearGradient>
    <linearGradient id="favFacetTop" x1="10" y1="8" x2="26" y2="18" gradientUnits="userSpaceOnUse">
      <stop offset="0%" stop-color="#ffffff" stop-opacity="0.9"/>
      <stop offset="100%" stop-color="#c084fc" stop-opacity="0.5"/>
    </linearGradient>
    <linearGradient id="favFacetBottom" x1="6" y1="18" x2="30" y2="28" gradientUnits="userSpaceOnUse">
      <stop offset="0%" stop-color="#6366f1"/>
      <stop offset="100%" stop-color="#06b6d4"/>
    </linearGradient>
  </defs>
  <rect width="36" height="36" rx="10" fill="#0f1123"/>
  <rect width="36" height="36" rx="10" stroke="#6366f1" stroke-opacity="0.3" stroke-width="1.5"/>
  <path d="M12.5 13C13.6 9.5 17 7 21 7C25.8 7 29.8 10.6 30 15.4C32.3 16.2 34 18.4 34 21C34 24.3 31.3 27 28 27H10C6.7 27 4 24.3 4 21C4 18 6.2 15.6 9.1 15.1C9.6 14.1 10.3 13.3 11.2 12.7" stroke="url(#favCloud)" stroke-width="2.2" stroke-linecap="round" stroke-linejoin="round"/>
  <path d="M18 11.5L24 16L18 20.5L12 16L18 11.5Z" fill="url(#favFacetTop)"/>
  <path d="M12 16L18 20.5V26.5L12 22V16Z" fill="url(#favFacetBottom)"/>
  <path d="M24 16L18 20.5V26.5L24 22V16Z" fill="url(#favCloud)"/>
  <circle cx="18" cy="20.5" r="1.5" fill="#ffffff"/>
</svg>